<mxfile host="app.diagrams.net" modified="2023-12-04T14:23:50.497Z" agent="Mozilla/5.0 (Macintosh; Intel Mac OS X 10_15_7) AppleWebKit/537.36 (KHTML, like Gecko) Chrome/119.0.0.0 Safari/537.36" etag="9sU5dHQFgghEyUqIt4lx" version="22.1.5" type="device">
  <diagram name="Page-1" id="StKe0YM9z_SJDqOi1BaN">
    <mxGraphModel dx="555" dy="354" grid="1" gridSize="10" guides="1" tooltips="1" connect="1" arrows="1" fold="1" page="1" pageScale="1" pageWidth="827" pageHeight="1169" math="0" shadow="0">
      <root>
        <mxCell id="0" />
        <mxCell id="1" parent="0" />
        <mxCell id="KtY5ksoONz00Fen6oR8V-2" value="" style="rounded=0;whiteSpace=wrap;html=1;movable=1;resizable=1;rotatable=1;deletable=1;editable=1;locked=0;connectable=1;fillColor=#dae8fc;strokeColor=#6c8ebf;" vertex="1" parent="1">
          <mxGeometry x="179" y="60" width="470" height="500" as="geometry" />
        </mxCell>
        <mxCell id="KtY5ksoONz00Fen6oR8V-3" value="Welcome!" style="text;html=1;strokeColor=none;fillColor=none;align=center;verticalAlign=middle;whiteSpace=wrap;rounded=0;" vertex="1" parent="1">
          <mxGeometry x="384" y="180" width="60" height="30" as="geometry" />
        </mxCell>
        <mxCell id="KtY5ksoONz00Fen6oR8V-4" value="" style="rounded=0;whiteSpace=wrap;html=1;" vertex="1" parent="1">
          <mxGeometry x="334" y="230" width="160" height="110" as="geometry" />
        </mxCell>
        <mxCell id="KtY5ksoONz00Fen6oR8V-6" value="&lt;font style=&quot;font-size: 8px;&quot;&gt;Username&lt;/font&gt;" style="rounded=1;whiteSpace=wrap;html=1;align=left;" vertex="1" parent="1">
          <mxGeometry x="350" y="240" width="130" height="20" as="geometry" />
        </mxCell>
        <mxCell id="KtY5ksoONz00Fen6oR8V-8" value="&lt;font style=&quot;font-size: 8px;&quot;&gt;User Password&lt;/font&gt;" style="rounded=1;whiteSpace=wrap;html=1;align=left;" vertex="1" parent="1">
          <mxGeometry x="350" y="270" width="130" height="20" as="geometry" />
        </mxCell>
        <mxCell id="KtY5ksoONz00Fen6oR8V-9" value="&lt;font style=&quot;font-size: 8px;&quot;&gt;Login&lt;/font&gt;" style="rounded=1;whiteSpace=wrap;html=1;fillColor=#dae8fc;strokeColor=#6c8ebf;" vertex="1" parent="1">
          <mxGeometry x="350" y="300" width="130" height="20" as="geometry" />
        </mxCell>
        <mxCell id="KtY5ksoONz00Fen6oR8V-10" value="&lt;font style=&quot;font-size: 6px;&quot;&gt;Don&#39;t have an account? Register&lt;/font&gt;" style="text;html=1;strokeColor=none;fillColor=none;align=center;verticalAlign=middle;whiteSpace=wrap;rounded=0;" vertex="1" parent="1">
          <mxGeometry x="397" y="340" width="97" height="20" as="geometry" />
        </mxCell>
      </root>
    </mxGraphModel>
  </diagram>
</mxfile>
